<?xml version="1.0" encoding="utf-8"?>
<!-- Generator: Adobe Illustrator 16.0.0, SVG Export Plug-In . SVG Version: 6.00 Build 0)  -->
<!DOCTYPE svg PUBLIC "-//W3C//DTD SVG 1.1//EN" "http://www.w3.org/Graphics/SVG/1.1/DTD/svg11.dtd">
<svg version="1.1" id="Layer_1" xmlns="http://www.w3.org/2000/svg" xmlns:xlink="http://www.w3.org/1999/xlink" x="0px" y="0px"
	 width="195.734px" height="80px" viewBox="0 0 195.734 80" enable-background="new 0 0 195.734 80" xml:space="preserve">
<g>
	<path fill="#00732F" d="M39.095,19.012c2.827,4.119,4.241,8.686,4.241,13.708c-0.09,5.043-1.583,9.6-4.478,13.669
		c-2.963,3.982-6.706,6.854-11.229,8.619c-2.24,0.88-4.534,1.436-6.888,1.66c-0.588,0.047-1.176,0.08-1.763,0.104h-0.882h-0.747
		h-4.682c-2.782-0.069-5.095-1.031-6.938-2.885c-1.844-1.854-2.799-4.173-2.867-6.955l0.034-28.631
		c0.09-2.872,1.109-5.28,3.053-7.228c1.945-1.945,4.32-2.916,7.125-2.916h0.968h1.542h1.477h0.662
		c1.107,0.023,2.261,0.101,3.459,0.237c2.352,0.271,4.637,0.871,6.854,1.798C32.535,12.024,36.223,14.965,39.095,19.012
		 M30.749,40.726c1.605-2.464,2.42-5.156,2.443-8.075c0.021-2.918-0.748-5.63-2.307-8.142c-1.606-2.488-3.801-4.399-6.582-5.734
		c-1.356-0.61-2.793-1.027-4.308-1.254c-0.724-0.114-1.493-0.17-2.307-0.17l-2.918-0.034h-0.949h-0.747v30.397h0.61h0.747
		l2.884-0.035h0.712l0.577-0.033c0.384-0.021,0.757-0.056,1.12-0.102c1.515-0.204,2.962-0.598,4.343-1.188
		C26.848,45.091,29.075,43.213,30.749,40.726"/>
	<path fill="#00732F" d="M73.292,30.634c0-3.292,1.228-6.593,3.769-8.686c1.259-1.037,2.665-1.716,4.218-2.038
		c1.127-0.234,2.191,0.661,2.191,1.812v14.661v9.48c0,3.293-1.22,6.6-3.759,8.694c-1.815,1.498-3.944,2.248-6.385,2.248v-1.562
		c-2.239,0.929-4.682,1.392-7.328,1.392c-5.02,0-9.419-1.707-13.197-5.124c-1.447-1.286-2.822-3.193-4.121-5.715
		c-1.301-2.521-1.952-5.806-1.952-9.854v-5.308c0-3.292,1.229-6.593,3.77-8.686c1.258-1.037,2.665-1.716,4.218-2.038
		c1.127-0.234,2.191,0.661,2.191,1.812v14.22c0,3.618,0.971,6.354,2.917,8.209c1.718,1.562,3.778,2.341,6.174,2.341
		c1.268,0,2.8-0.396,4.598-1.187c1.798-0.791,2.697-2.353,2.697-4.684V30.634z"/>
	<path fill="#00732F" d="M122.279,29.122c2.262,4.413,2.737,9.059,1.426,13.945c-1.426,4.841-4.252,8.56-8.482,11.16
		c-2.895,1.719-5.914,2.579-9.058,2.579c-1.561,0-3.109-0.214-4.647-0.644c-1.628-0.477-3.121-1.144-4.478-2.002v2.646
		c-2.455,0-4.597-0.761-6.427-2.285c-2.526-2.104-3.751-5.396-3.751-8.683V19.062c0-3.292,1.226-6.591,3.76-8.694
		c1.26-1.047,2.669-1.734,4.226-2.06c1.127-0.235,2.193,0.66,2.193,1.813v12.657c0.066-0.066,0.146-0.123,0.236-0.167
		c0.181-0.136,0.362-0.26,0.545-0.373c4.363-2.556,8.943-3.189,13.737-1.901C116.308,21.74,119.883,24.668,122.279,29.122
		 M113.29,33.838c-1.019-1.898-2.511-3.142-4.479-3.732c-0.633-0.18-1.266-0.271-1.898-0.271c-1.313,0-2.603,0.373-3.868,1.121
		c-1.923,1.198-3.223,2.938-3.901,5.224c-0.589,2.308-0.401,4.423,0.56,6.344c0.962,1.921,2.482,3.202,4.564,3.833
		c1.966,0.543,3.877,0.272,5.731-0.814c1.945-1.197,3.246-2.938,3.903-5.224C114.533,38.01,114.33,35.852,113.29,33.838"/>
	<path fill="#00732F" d="M161.193,21.948c2.541,2.093,3.771,5.394,3.771,8.686v15.204c0,3.286-1.226,6.579-3.751,8.683
		c-1.83,1.524-3.973,2.285-6.426,2.285v-1.424v-0.984c-2.828,1.718-5.858,2.579-9.092,2.579c-1.541,0-3.077-0.214-4.616-0.645
		c-4.771-1.403-8.355-4.333-10.753-8.788c-2.239-4.41-2.703-9.057-1.391-13.943c1.537-5.042,4.397-8.791,8.583-11.245
		c4.184-2.455,8.718-3.07,13.604-1.85c1.311,0.363,2.531,0.871,3.664,1.527v-2.341C157.231,19.692,159.368,20.444,161.193,21.948
		 M152.937,34.145c-0.962-1.921-2.483-3.212-4.563-3.869c-0.635-0.157-1.268-0.237-1.901-0.237c-1.718,0-3.296,0.571-4.732,1.712
		c-1.436,1.144-2.447,2.676-3.036,4.598c-0.61,2.284-0.395,4.443,0.646,6.48c1.018,1.897,2.511,3.142,4.479,3.729
		c2.103,0.521,4.059,0.211,5.867-0.933c1.81-1.141,3.066-2.854,3.766-5.138C154.073,38.18,153.898,36.066,152.937,34.145"/>
	<path fill="#FF0000" d="M173.688,13.992c-1.787,0-3.319-0.634-4.597-1.898c-1.278-1.268-1.917-2.805-1.917-4.616
		c0-1.786,0.639-3.313,1.917-4.58C170.369,1.633,171.901,1,173.688,1c1.786,0,3.318,0.633,4.596,1.898
		c1.278,1.268,1.917,2.794,1.917,4.58c0,1.811-0.639,3.348-1.917,4.616C177.007,13.358,175.474,13.992,173.688,13.992"/>
	<path fill="#00732F" d="M168.599,30.636c0-3.296,1.23-6.6,3.776-8.693c1.258-1.034,2.659-1.711,4.21-2.032
		c1.128-0.234,2.191,0.661,2.191,1.812v24.042c0,3.296-1.229,6.599-3.767,8.702c-1.259,1.043-2.665,1.728-4.218,2.054
		c-1.129,0.235-2.193-0.66-2.193-1.813V30.636z"/>
	<path d="M88.138,66.113c0.286,0,0.537,0.102,0.758,0.311c0.22,0.209,0.329,0.465,0.329,0.773v10.292
		c0,0.308-0.113,0.567-0.338,0.776c-0.225,0.206-0.487,0.311-0.783,0.311c-0.333,0-0.6-0.104-0.801-0.311
		c-0.203-0.209-0.303-0.469-0.303-0.776V67.197c0-0.309,0.106-0.564,0.321-0.773C87.533,66.215,87.806,66.113,88.138,66.113
		 M88.085,71.293h7.941v2.049h-7.941V71.293z M96.026,66.113c0.332,0,0.6,0.102,0.803,0.311c0.199,0.209,0.302,0.465,0.302,0.773
		v10.292c0,0.308-0.104,0.567-0.312,0.776c-0.209,0.206-0.484,0.311-0.827,0.311c-0.285,0-0.539-0.104-0.758-0.311
		c-0.22-0.209-0.329-0.469-0.329-0.776V67.197c0-0.309,0.112-0.564,0.338-0.773S95.729,66.113,96.026,66.113"/>
	<path d="M113.938,72.345c0,0.889-0.148,1.722-0.445,2.493s-0.716,1.45-1.256,2.038c-0.54,0.587-1.182,1.047-1.922,1.38
		c-0.742,0.331-1.552,0.499-2.43,0.499c-0.879,0-1.687-0.168-2.423-0.499c-0.735-0.333-1.373-0.793-1.912-1.38
		c-0.542-0.588-0.959-1.267-1.257-2.038c-0.297-0.771-0.444-1.604-0.444-2.493c0-0.892,0.147-1.721,0.444-2.493
		c0.298-0.771,0.715-1.452,1.257-2.039c0.539-0.587,1.177-1.048,1.912-1.38c0.736-0.333,1.544-0.498,2.423-0.498
		c0.878,0,1.688,0.165,2.43,0.498c0.74,0.332,1.382,0.793,1.922,1.38s0.959,1.268,1.256,2.039
		C113.79,70.624,113.938,71.453,113.938,72.345 M111.624,72.345c0-0.796-0.16-1.517-0.48-2.164c-0.32-0.646-0.759-1.16-1.318-1.539
		c-0.558-0.381-1.204-0.57-1.939-0.57c-0.736,0-1.384,0.189-1.942,0.57c-0.558,0.379-0.993,0.888-1.309,1.53
		c-0.313,0.641-0.471,1.365-0.471,2.173c0,0.795,0.158,1.518,0.471,2.162c0.315,0.648,0.751,1.16,1.309,1.541
		c0.559,0.382,1.206,0.568,1.942,0.568c0.735,0,1.382-0.187,1.939-0.568c0.56-0.381,0.998-0.893,1.318-1.541
		C111.464,73.862,111.624,73.14,111.624,72.345"/>
	<path d="M127.505,66.093c0.31,0,0.558,0.105,0.748,0.313c0.189,0.207,0.284,0.466,0.284,0.774v6.446
		c0,0.984-0.21,1.856-0.632,2.617c-0.421,0.758-1,1.352-1.735,1.78c-0.736,0.428-1.592,0.641-2.564,0.641s-1.83-0.213-2.572-0.641
		c-0.742-0.429-1.323-1.022-1.745-1.78c-0.421-0.761-0.632-1.633-0.632-2.617v-6.446c0-0.309,0.106-0.567,0.32-0.774
		c0.213-0.208,0.485-0.313,0.818-0.313c0.274,0,0.52,0.105,0.739,0.313c0.22,0.207,0.329,0.466,0.329,0.774v6.446
		c0,0.594,0.128,1.106,0.383,1.539c0.255,0.435,0.595,0.769,1.016,1.006s0.87,0.357,1.344,0.357c0.51,0,0.984-0.12,1.425-0.357
		c0.438-0.237,0.794-0.571,1.068-1.006c0.272-0.433,0.409-0.945,0.409-1.539v-6.446c0-0.309,0.089-0.567,0.268-0.774
		C126.954,66.198,127.195,66.093,127.505,66.093"/>
	<path d="M137.708,78.755c-0.83,0-1.58-0.105-2.244-0.312c-0.664-0.208-1.3-0.573-1.903-1.096c-0.155-0.13-0.274-0.28-0.357-0.445
		s-0.125-0.332-0.125-0.498c0-0.273,0.098-0.516,0.295-0.722c0.194-0.209,0.441-0.312,0.738-0.312c0.226,0,0.428,0.07,0.605,0.214
		c0.452,0.367,0.899,0.646,1.344,0.838c0.444,0.188,0.993,0.284,1.647,0.284c0.438,0,0.843-0.069,1.21-0.205
		c0.369-0.136,0.665-0.32,0.892-0.552c0.225-0.231,0.338-0.495,0.338-0.794c0-0.355-0.107-0.657-0.321-0.908
		c-0.214-0.247-0.539-0.459-0.979-0.63c-0.439-0.174-0.998-0.306-1.674-0.401c-0.641-0.094-1.205-0.239-1.691-0.436
		c-0.487-0.197-0.894-0.445-1.22-0.749c-0.326-0.302-0.573-0.659-0.739-1.068s-0.249-0.868-0.249-1.38
		c0-0.771,0.198-1.43,0.596-1.977c0.398-0.545,0.937-0.961,1.612-1.247c0.677-0.284,1.425-0.426,2.244-0.426
		c0.771,0,1.486,0.116,2.146,0.346c0.657,0.233,1.193,0.527,1.611,0.883c0.344,0.274,0.516,0.586,0.516,0.943
		c0,0.262-0.102,0.498-0.304,0.712c-0.201,0.215-0.438,0.321-0.711,0.321c-0.179,0-0.338-0.054-0.481-0.16
		c-0.188-0.167-0.444-0.323-0.765-0.474c-0.321-0.147-0.658-0.271-1.016-0.373c-0.356-0.101-0.689-0.15-0.996-0.15
		c-0.512,0-0.942,0.064-1.291,0.195c-0.352,0.131-0.615,0.309-0.792,0.534c-0.18,0.225-0.268,0.487-0.268,0.783
		c0,0.356,0.103,0.649,0.312,0.883c0.208,0.23,0.507,0.415,0.899,0.552c0.391,0.135,0.86,0.256,1.405,0.362
		c0.713,0.133,1.338,0.287,1.88,0.463c0.539,0.179,0.986,0.409,1.344,0.688c0.357,0.277,0.622,0.627,0.801,1.049
		s0.268,0.935,0.268,1.541c0,0.771-0.214,1.437-0.643,1.992c-0.426,0.56-0.987,0.987-1.682,1.283
		C139.265,78.607,138.515,78.755,137.708,78.755"/>
	<path d="M149.226,77.489c0,0.309-0.112,0.567-0.338,0.776c-0.226,0.206-0.487,0.311-0.782,0.311c-0.333,0-0.601-0.104-0.803-0.311
		c-0.202-0.209-0.302-0.468-0.302-0.776V67.197c0-0.309,0.105-0.564,0.32-0.773c0.212-0.209,0.485-0.311,0.818-0.311
		c0.285,0,0.536,0.102,0.757,0.311s0.329,0.465,0.329,0.773V77.489z"/>
	<path d="M164.024,66.113c0.284,0,0.516,0.094,0.694,0.285c0.179,0.188,0.266,0.426,0.266,0.711v10.38
		c0,0.308-0.103,0.567-0.31,0.776c-0.209,0.206-0.468,0.311-0.775,0.311c-0.154,0-0.313-0.026-0.472-0.081
		c-0.162-0.052-0.283-0.125-0.365-0.221l-6.997-8.887l0.463-0.283v8.474c0,0.284-0.093,0.524-0.276,0.714
		c-0.185,0.188-0.426,0.284-0.722,0.284c-0.285,0-0.517-0.096-0.693-0.284c-0.178-0.189-0.268-0.43-0.268-0.714V67.197
		c0-0.309,0.104-0.564,0.312-0.773c0.207-0.209,0.466-0.311,0.774-0.311c0.166,0,0.339,0.032,0.517,0.099
		c0.178,0.064,0.308,0.161,0.392,0.293l6.783,8.652l-0.303,0.214v-8.262c0-0.285,0.09-0.522,0.267-0.711
		C163.49,66.207,163.727,66.113,164.024,66.113"/>
	<path d="M176.201,78.755c-0.902,0-1.744-0.168-2.527-0.499c-0.784-0.333-1.473-0.793-2.066-1.379
		c-0.593-0.589-1.059-1.268-1.397-2.039s-0.509-1.604-0.509-2.493c0-0.892,0.17-1.721,0.509-2.493
		c0.339-0.771,0.805-1.451,1.397-2.039c0.594-0.587,1.282-1.047,2.066-1.38c0.783-0.332,1.625-0.498,2.527-0.498
		c0.559,0,1.099,0.059,1.62,0.179c0.522,0.118,1.003,0.295,1.442,0.533c0.179,0.095,0.312,0.224,0.401,0.382
		c0.088,0.161,0.133,0.323,0.133,0.491c0,0.285-0.095,0.539-0.285,0.765c-0.19,0.227-0.433,0.34-0.729,0.34
		c-0.095,0-0.192-0.014-0.294-0.037c-0.101-0.023-0.198-0.059-0.293-0.106c-0.298-0.132-0.612-0.231-0.944-0.303
		c-0.333-0.071-0.683-0.106-1.051-0.106c-0.771,0-1.475,0.193-2.109,0.579c-0.636,0.384-1.141,0.901-1.515,1.549
		c-0.373,0.646-0.561,1.36-0.561,2.146c0,0.772,0.188,1.485,0.561,2.136c0.374,0.652,0.879,1.172,1.515,1.56
		c0.635,0.384,1.338,0.576,2.109,0.576c0.356,0,0.749-0.035,1.176-0.105c0.427-0.071,0.776-0.167,1.05-0.284l-0.16,0.531v-3.042
		l0.303,0.265h-1.977c-0.308,0-0.566-0.099-0.774-0.302c-0.207-0.202-0.311-0.456-0.311-0.765s0.104-0.563,0.311-0.766
		c0.208-0.202,0.467-0.304,0.774-0.304h2.92c0.31,0,0.564,0.104,0.766,0.313c0.203,0.207,0.304,0.466,0.304,0.774v3.775
		c0,0.236-0.058,0.433-0.17,0.586c-0.113,0.154-0.24,0.281-0.383,0.374c-0.546,0.333-1.142,0.599-1.791,0.793
		C177.594,78.657,176.913,78.755,176.201,78.755"/>
</g>
</svg>
